<svg xmlns="http://www.w3.org/2000/svg" viewBox="0 0 80 80" shape-rendering="crispEdges">
  <!-- Aztec Jade Frame - pixel art -->
  <rect x="0" y="0" width="80" height="4" fill="#006400"/>
  <rect x="0" y="76" width="80" height="4" fill="#006400"/>
  <rect x="0" y="0" width="4" height="80" fill="#006400"/>
  <rect x="76" y="0" width="4" height="80" fill="#006400"/>
  <!-- inner jade -->
  <rect x="4" y="4" width="72" height="2" fill="#00A86B"/>
  <rect x="4" y="74" width="72" height="2" fill="#00A86B"/>
  <rect x="4" y="4" width="2" height="72" fill="#00A86B"/>
  <rect x="74" y="4" width="2" height="72" fill="#00A86B"/>
  <!-- aztec step pattern left -->
  <rect x="0" y="16" width="6" height="2" fill="#00A86B"/>
  <rect x="2" y="18" width="4" height="2" fill="#00A86B"/>
  <rect x="0" y="28" width="6" height="2" fill="#00A86B"/>
  <rect x="2" y="30" width="4" height="2" fill="#00A86B"/>
  <rect x="0" y="40" width="6" height="2" fill="#FFD700"/>
  <rect x="2" y="42" width="4" height="2" fill="#FFD700"/>
  <rect x="0" y="52" width="6" height="2" fill="#00A86B"/>
  <rect x="2" y="54" width="4" height="2" fill="#00A86B"/>
  <rect x="0" y="64" width="6" height="2" fill="#00A86B"/>
  <rect x="2" y="66" width="4" height="2" fill="#00A86B"/>
  <!-- aztec step pattern right -->
  <rect x="74" y="16" width="6" height="2" fill="#00A86B"/>
  <rect x="74" y="18" width="4" height="2" fill="#00A86B"/>
  <rect x="74" y="28" width="6" height="2" fill="#00A86B"/>
  <rect x="74" y="30" width="4" height="2" fill="#00A86B"/>
  <rect x="74" y="40" width="6" height="2" fill="#FFD700"/>
  <rect x="74" y="42" width="4" height="2" fill="#FFD700"/>
  <rect x="74" y="52" width="6" height="2" fill="#00A86B"/>
  <rect x="74" y="54" width="4" height="2" fill="#00A86B"/>
  <rect x="74" y="64" width="6" height="2" fill="#00A86B"/>
  <rect x="74" y="66" width="4" height="2" fill="#00A86B"/>
  <!-- sun god corners -->
  <rect x="6" y="6" width="8" height="8" fill="#FFD700"/>
  <rect x="8" y="8" width="4" height="4" fill="#006400"/>
  <rect x="66" y="6" width="8" height="8" fill="#FFD700"/>
  <rect x="68" y="8" width="4" height="4" fill="#006400"/>
  <rect x="6" y="66" width="8" height="8" fill="#FFD700"/>
  <rect x="8" y="68" width="4" height="4" fill="#006400"/>
  <rect x="66" y="66" width="8" height="8" fill="#FFD700"/>
  <rect x="68" y="68" width="4" height="4" fill="#006400"/>
  <!-- top serpent teeth -->
  <rect x="20" y="0" width="2" height="2" fill="#FFD700"/>
  <rect x="30" y="0" width="2" height="2" fill="#FFD700"/>
  <rect x="40" y="0" width="2" height="2" fill="#FFD700"/>
  <rect x="50" y="0" width="2" height="2" fill="#FFD700"/>
  <rect x="60" y="0" width="2" height="2" fill="#FFD700"/>
</svg>
