<svg xmlns="http://www.w3.org/2000/svg" viewBox="0 0 80 80" shape-rendering="crispEdges">
  <!-- Greek Meander Frame - pixel art -->
  <rect x="0" y="0" width="80" height="4" fill="#F5F5DC"/>
  <rect x="0" y="76" width="80" height="4" fill="#F5F5DC"/>
  <rect x="0" y="0" width="4" height="80" fill="#F5F5DC"/>
  <rect x="76" y="0" width="4" height="80" fill="#F5F5DC"/>
  <!-- inner terracotta -->
  <rect x="4" y="4" width="72" height="2" fill="#CC5500"/>
  <rect x="4" y="74" width="72" height="2" fill="#CC5500"/>
  <rect x="4" y="4" width="2" height="72" fill="#CC5500"/>
  <rect x="74" y="4" width="2" height="72" fill="#CC5500"/>
  <!-- meander pattern top -->
  <rect x="12" y="0" width="4" height="2" fill="#CC5500"/>
  <rect x="12" y="2" width="2" height="4" fill="#CC5500"/>
  <rect x="12" y="4" width="6" height="2" fill="#CC5500"/>
  <rect x="24" y="0" width="4" height="2" fill="#CC5500"/>
  <rect x="24" y="2" width="2" height="4" fill="#CC5500"/>
  <rect x="24" y="4" width="6" height="2" fill="#CC5500"/>
  <rect x="36" y="0" width="4" height="2" fill="#CC5500"/>
  <rect x="36" y="2" width="2" height="4" fill="#CC5500"/>
  <rect x="36" y="4" width="6" height="2" fill="#CC5500"/>
  <rect x="52" y="0" width="4" height="2" fill="#CC5500"/>
  <rect x="52" y="2" width="2" height="4" fill="#CC5500"/>
  <rect x="52" y="4" width="6" height="2" fill="#CC5500"/>
  <rect x="64" y="0" width="4" height="2" fill="#CC5500"/>
  <rect x="64" y="2" width="2" height="4" fill="#CC5500"/>
  <rect x="64" y="4" width="6" height="2" fill="#CC5500"/>
  <!-- column capitals at corners -->
  <rect x="6" y="6" width="2" height="10" fill="#F5F5DC"/>
  <rect x="6" y="6" width="6" height="2" fill="#F5F5DC"/>
  <rect x="72" y="6" width="2" height="10" fill="#F5F5DC"/>
  <rect x="72" y="6" width="6" height="2" fill="#F5F5DC"/>
  <rect x="6" y="64" width="2" height="10" fill="#F5F5DC"/>
  <rect x="6" y="72" width="6" height="2" fill="#F5F5DC"/>
  <rect x="72" y="64" width="2" height="10" fill="#F5F5DC"/>
  <rect x="72" y="72" width="6" height="2" fill="#F5F5DC"/>
</svg>
